<?xml version="1.0" encoding="UTF-8"?>
<svg width="800" height="400" viewBox="0 0 800 400" xmlns="http://www.w3.org/2000/svg">
  <rect width="800" height="400" fill="#F86AA0"/>
  <path d="M0,300 Q400,200 800,300 L800,400 L0,400 Z" fill="#ffffff"/>
  
  <!-- Water sprinklers -->
  <circle cx="200" cy="260" r="80" fill="#00c6ff" opacity="0.3"/>
  <circle cx="200" cy="260" r="60" fill="#00c6ff" opacity="0.5"/>
  <line x1="200" y1="260" x2="200" y2="200" stroke="#00c6ff" stroke-width="8"/>
  <circle cx="200" cy="200" r="12" fill="#00c6ff"/>
  <path d="M200,200 L180,180 M200,200 L220,180 M200,200 L180,200 M200,200 L220,200 M200,200 L180,220 M200,200 L220,220" stroke="#00c6ff" stroke-width="4"/>
  
  <!-- Small slides -->
  <path d="M500,200 C550,220 580,250 550,300" stroke="#FFD447" stroke-width="30" fill="none" stroke-linecap="round"/>
  <path d="M630,230 C650,250 660,270 650,300" stroke="#00c6ff" stroke-width="20" fill="none" stroke-linecap="round"/>
  
  <!-- Animal sculpture -->
  <circle cx="350" cy="250" r="30" fill="#0A4C8B"/> <!-- Animal head -->
  <ellipse cx="350" cy="310" rx="40" ry="30" fill="#0A4C8B"/> <!-- Animal body -->
  <circle cx="335" cy="240" r="5" fill="white"/> <!-- Eye -->
  <circle cx="365" cy="240" r="5" fill="white"/> <!-- Eye -->
  
  <text x="400" y="100" font-family="Arial" font-size="35" font-weight="bold" text-anchor="middle" fill="#ffffff">KIDS SPLASH ZONE</text>
</svg>