<?xml version="1.0" encoding="UTF-8"?>
<svg width="800" height="400" viewBox="0 0 800 400" xmlns="http://www.w3.org/2000/svg">
  <rect width="800" height="400" fill="#0A4C8B"/>
  
  <!-- Pool water -->
  <rect x="100" y="150" width="600" height="200" fill="#00c6ff"/>
  
  <!-- Water pattern -->
  <path d="M100,170 Q150,160 200,170 Q250,180 300,170 Q350,160 400,170 Q450,180 500,170 Q550,160 600,170 Q650,180 700,170" stroke="white" stroke-width="2" fill="none" opacity="0.5"/>
  <path d="M100,190 Q150,180 200,190 Q250,200 300,190 Q350,180 400,190 Q450,200 500,190 Q550,180 600,190 Q650,200 700,190" stroke="white" stroke-width="2" fill="none" opacity="0.5"/>
  
  <!-- Beach chairs -->
  <rect x="150" y="250" width="100" height="20" rx="5" fill="#FFD447"/>
  <rect x="150" y="220" width="100" height="5" rx="2" fill="#FFD447"/>
  <line x1="170" y1="220" x2="170" y2="250" stroke="#FFD447" stroke-width="3"/>
  <line x1="230" y1="220" x2="230" y2="250" stroke="#FFD447" stroke-width="3"/>
  
  <rect x="550" y="250" width="100" height="20" rx="5" fill="#FFD447"/>
  <rect x="550" y="220" width="100" height="5" rx="2" fill="#FFD447"/>
  <line x1="570" y1="220" x2="570" y2="250" stroke="#FFD447" stroke-width="3"/>
  <line x1="630" y1="220" x2="630" y2="250" stroke="#FFD447" stroke-width="3"/>
  
  <!-- Umbrella -->
  <line x1="400" y1="150" x2="400" y2="250" stroke="#F86AA0" stroke-width="5"/>
  <path d="M320,180 Q400,130 480,180" fill="#F86AA0"/>
  
  <!-- Cocktail glass -->
  <path d="M500,290 L510,250 L530,250 L540,290" fill="none" stroke="#FFD447" stroke-width="2"/>
  <path d="M500,250 L540,250" stroke="#FFD447" stroke-width="2"/>
  <circle cx="520" cy="240" r="5" fill="#F86AA0"/>
  
  <text x="400" y="100" font-family="Arial" font-size="35" font-weight="bold" text-anchor="middle" fill="#ffffff">VIP POOL & BAR</text>
</svg>