<?xml version="1.0" encoding="UTF-8"?>
<svg width="800" height="400" viewBox="0 0 800 400" xmlns="http://www.w3.org/2000/svg">
  <rect width="800" height="400" fill="#00c6ff"/>
  <path d="M0,300 Q400,200 800,300 L800,400 L0,400 Z" fill="#ffffff"/>
  
  <!-- Tall slide -->
  <path d="M150,100 C200,150 180,250 130,300" stroke="#F86AA0" stroke-width="30" fill="none" stroke-linecap="round"/>
  <circle cx="150" cy="100" r="20" fill="#F86AA0"/>
  <circle cx="130" cy="300" r="15" fill="#ffffff"/>
  
  <!-- Medium slide -->
  <path d="M400,150 C450,200 430,250 380,300" stroke="#FFD447" stroke-width="25" fill="none" stroke-linecap="round"/>
  <circle cx="400" cy="150" r="15" fill="#FFD447"/>
  <circle cx="380" cy="300" r="12" fill="#ffffff"/>
  
  <!-- Small slide -->
  <path d="M600,200 C650,220 650,250 600,300" stroke="#0A4C8B" stroke-width="20" fill="none" stroke-linecap="round"/>
  <circle cx="600" cy="200" r="12" fill="#0A4C8B"/>
  <circle cx="600" cy="300" r="10" fill="#ffffff"/>
  
  <!-- People -->
  <circle cx="120" cy="120" r="8" fill="#ffffff"/>
  <path d="M120,128 L120,145" stroke="#ffffff" stroke-width="3"/>
  <path d="M120,135 L110,145" stroke="#ffffff" stroke-width="3"/>
  <path d="M120,135 L130,145" stroke="#ffffff" stroke-width="3"/>
  
  <circle cx="380" cy="170" r="8" fill="#ffffff"/>
  <path d="M380,178 L380,195" stroke="#ffffff" stroke-width="3"/>
  <path d="M380,185 L370,195" stroke="#ffffff" stroke-width="3"/>
  <path d="M380,185 L390,195" stroke="#ffffff" stroke-width="3"/>
  
  <!-- Splash zones -->
  <circle cx="130" cy="300" r="30" fill="#00c6ff" opacity="0.5"/>
  <circle cx="380" cy="300" r="25" fill="#00c6ff" opacity="0.5"/>
  <circle cx="600" cy="300" r="20" fill="#00c6ff" opacity="0.5"/>
  
  <text x="400" y="70" font-family="Arial" font-size="40" font-weight="bold" text-anchor="middle" fill="#ffffff" stroke="#0A4C8B" stroke-width="1">WATERPARK & SLIDES</text>
</svg>